<svg version="1.1" id="Layer_1" xmlns="http://www.w3.org/2000/svg" xmlns:xlink="http://www.w3.org/1999/xlink" x="0px" y="0px"
	 width="100%" viewBox="0 0 1024 1024" enable-background="new 0 0 1024 1024" xml:space="preserve">
<path fill="#000000" opacity="1.000000" stroke="none" 
	d="
M312.739746,303.971497 
	C294.077240,311.999878 275.672211,304.880646 268.003418,286.924774 
	C265.083679,280.088409 264.733551,273.022156 266.808655,265.925568 
	C268.931000,258.667297 273.318542,252.890625 279.157135,248.159241 
	C284.839478,243.554504 291.376923,241.104385 299.984924,241.230804 
	C294.919983,236.133774 297.620514,233.892181 300.948242,231.214783 
	C310.761932,223.318924 310.661560,223.204391 318.687012,232.949463 
	C328.210297,244.513260 337.821167,256.005920 347.253326,267.643463 
	C360.947113,284.539062 360.002625,300.223022 344.448914,315.408203 
	C335.826477,323.826355 325.853790,329.836761 313.920044,332.431824 
	C310.060913,333.270996 308.274872,332.028687 307.796387,328.252747 
	C307.358917,324.800354 305.618683,321.008209 306.551208,318.020905 
	C307.605408,314.643799 312.382141,315.969147 315.404419,314.794891 
	C321.391022,312.468994 326.877838,309.449005 331.427734,304.907257 
	C338.864655,297.483795 339.070862,289.567169 331.653015,280.907990 
	C328.816833,291.513855 322.636047,299.100800 312.739746,303.971497 
M318.947357,269.644348 
	C318.155701,262.219849 313.167847,256.379456 306.658142,255.254623 
	C298.892242,253.912735 290.776886,258.156799 287.285461,265.385895 
	C284.110413,271.959900 285.423676,279.062286 290.835510,283.990997 
	C295.473541,288.214966 301.003357,289.045410 306.620728,286.849030 
	C313.904327,284.001190 318.920105,279.020569 318.947357,269.644348 
z"/>
<path fill="#000000" opacity="1.000000" stroke="none" 
	d="
M297.438690,744.385986 
	C288.819336,758.594788 280.380371,772.486633 271.596771,786.945862 
	C266.774567,782.710388 263.683624,778.209412 260.464111,773.858215 
	C258.933655,771.789856 260.759155,770.045959 261.748444,768.424255 
	C267.821930,758.469116 273.986267,748.569336 280.095886,738.636169 
	C280.950409,737.246887 282.150757,735.991516 282.157684,733.481750 
	C273.810577,736.359436 265.707489,739.159485 257.599701,741.945801 
	C252.717377,743.623657 247.798950,745.201660 242.953262,746.978638 
	C240.409714,747.911377 238.726929,747.427734 236.914490,745.272400 
	C228.354553,735.093140 228.315643,735.165405 235.225861,724.025269 
	C240.916260,714.851624 246.532440,705.631958 252.889328,695.280029 
	C241.142868,699.336975 230.685883,702.987915 220.201645,706.558899 
	C208.810135,710.438843 208.797409,710.407715 201.280396,701.115540 
	C200.252991,699.845398 198.936768,698.741699 198.668472,696.969910 
	C199.876434,694.957336 202.033691,694.781860 203.821152,694.157471 
	C222.845901,687.511719 241.930298,681.035339 260.920624,674.293640 
	C264.330200,673.083252 266.253693,673.652710 268.506653,676.500488 
	C277.515900,687.888367 277.615906,687.803223 270.147797,700.285889 
	C265.656158,707.793518 261.180481,715.310669 257.471100,723.787964 
	C264.366547,721.576904 271.274475,719.403625 278.153168,717.141602 
	C282.897797,715.581421 287.642944,714.005737 292.308533,712.228638 
	C295.017334,711.196838 297.140930,711.369629 298.795837,713.932129 
	C299.154694,714.487732 299.651581,714.952759 300.069733,715.471802 
	C308.589630,726.046204 308.587982,726.045837 301.503143,737.655823 
	C300.201263,739.789185 298.913422,741.931091 297.438690,744.385986 
z"/>
<path fill="#000000" opacity="1.000000" stroke="none" 
	d="
M195.839081,387.945801 
	C197.663818,383.241882 199.401978,378.919495 201.036026,374.558105 
	C201.998795,371.988403 203.480576,371.432709 206.057587,372.467316 
	C219.760620,377.968872 218.626511,374.541504 213.675919,388.144165 
	C211.001984,395.491302 208.401047,402.874268 205.406601,410.091492 
	C203.943604,413.617554 204.900650,415.255859 208.236237,416.426392 
	C224.713882,422.208771 220.298294,423.699280 226.207687,408.762970 
	C229.757401,399.790833 233.165894,390.760010 236.457291,381.690002 
	C237.675552,378.332855 239.268387,377.365814 242.771484,378.801147 
	C256.452026,384.406464 254.747040,381.296051 250.073837,394.377686 
	C244.310135,410.511993 237.892731,426.411713 231.968109,442.490326 
	C230.622009,446.143463 229.099335,446.948029 225.357178,445.505890 
	C201.294708,436.232880 177.162369,427.139740 153.006378,418.112244 
	C149.290405,416.723541 148.191345,415.029449 149.730423,411.064575 
	C156.592484,393.387085 163.227127,375.620544 169.829132,357.843567 
	C170.933350,354.870300 172.396240,354.119324 175.471069,355.088409 
	C187.907349,359.007965 187.887848,358.911530 183.304062,370.932617 
	C179.865997,379.949036 176.674011,389.060730 173.136627,398.037048 
	C171.880096,401.225586 172.440048,403.015198 175.683243,404.172150 
	C190.897659,409.599548 186.944763,410.876190 192.375076,397.189941 
	C193.540802,394.251923 194.600327,391.271729 195.839081,387.945801 
z"/>
<path fill="#000000" opacity="1.000000" stroke="none" 
	d="
M789.620605,451.682495 
	C788.745056,447.412476 788.191956,443.443970 787.132874,439.615417 
	C786.088196,435.839172 787.693604,434.436707 791.086182,433.858093 
	C806.832581,431.172607 822.573242,428.452728 838.308716,425.703857 
	C850.093750,423.645111 861.892212,421.648407 873.631042,419.349854 
	C876.918152,418.706207 878.200745,419.544495 878.638184,422.755096 
	C879.175659,426.699371 879.880920,430.639099 880.828369,434.503662 
	C881.639160,437.811096 880.407593,438.941864 877.251953,439.457703 
	C868.742859,440.848633 860.280273,442.523621 851.016785,444.229980 
	C857.977295,450.741364 860.970276,458.320740 861.373169,467.075958 
	C861.774658,475.802246 859.457275,483.615570 853.648071,490.125488 
	C842.584595,502.523224 822.923523,505.961365 808.862610,498.182465 
	C793.979980,489.948975 789.179443,474.727661 794.919189,453.957184 
	C793.488586,452.502014 790.730042,454.643005 789.620605,451.682495 
M808.527954,461.310730 
	C807.651855,468.552490 808.986572,475.105927 815.671021,479.096863 
	C822.588928,483.227234 829.790771,482.362244 836.480103,478.377747 
	C842.117554,475.019775 844.405273,469.750000 843.821655,463.150940 
	C843.273682,456.954346 840.334229,452.529266 834.659363,450.010529 
	C824.595032,445.543396 812.898438,450.326996 808.527954,461.310730 
z"/>
<path fill="#000000" opacity="1.000000" stroke="none" 
	d="
M786.641357,663.764832 
	C808.681946,668.115601 822.509583,681.850342 825.594421,703.455078 
	C827.727295,718.393250 821.732300,731.206848 812.272583,742.408813 
	C805.910767,749.942200 798.012085,755.362549 788.294861,757.852600 
	C784.409790,758.848206 781.600830,758.417114 781.632080,753.509338 
	C781.633179,753.343872 781.603638,753.177490 781.580139,753.012695 
	C781.064697,749.393921 779.562927,745.564148 780.281921,742.210327 
	C781.176086,738.038696 786.330688,739.139465 789.456177,737.580750 
	C799.075745,732.783264 807.123596,720.265503 806.624207,710.120117 
	C806.105591,699.582947 798.151184,689.478455 787.337646,685.620483 
	C777.320068,682.046387 766.314209,684.833130 759.047180,692.844849 
	C757.934326,694.071777 756.955444,695.437439 756.035339,696.819336 
	C748.724304,707.799805 749.113464,709.951477 759.663513,717.217346 
	C762.543518,719.200928 765.393677,721.233032 768.340332,723.113037 
	C770.905029,724.749329 771.087402,726.420959 769.184692,728.795776 
	C767.107178,731.388733 765.106812,734.104797 763.513794,737.009094 
	C761.511353,740.659668 759.528381,741.100769 756.104126,738.564941 
	C749.014893,733.314697 741.677246,728.397583 734.396179,723.409912 
	C732.230652,721.926514 730.557495,720.372681 730.718079,717.412598 
	C731.801819,697.437073 744.559204,672.363708 767.884338,665.299805 
	C773.950562,663.462708 780.029236,663.576599 786.641357,663.764832 
z"/>
<path fill="#000000" opacity="1.000000" stroke="none" 
	d="
M487.288055,855.857178 
	C483.137390,854.419800 479.214569,853.438416 475.623688,851.750732 
	C458.438019,843.673584 456.776367,821.517029 472.426178,810.642334 
	C478.947784,806.110535 486.426300,804.346802 494.097656,803.955017 
	C507.149567,803.288330 519.522400,806.227478 531.090576,812.432251 
	C534.579773,814.303711 536.073242,816.379517 533.527466,820.281616 
	C531.465576,823.441895 530.044189,827.020020 528.476562,830.138611 
	C525.825134,830.673157 524.545776,829.080627 523.034302,828.200012 
	C514.006470,822.940002 504.343689,820.490479 493.877350,821.245789 
	C491.504425,821.417114 489.247162,821.846497 487.200806,823.040100 
	C481.838257,826.167480 481.659515,832.116638 486.820862,835.561401 
	C489.918884,837.629028 493.543976,838.416931 497.012909,839.555176 
	C503.174103,841.576843 509.444153,843.292664 515.525024,845.527466 
	C526.098022,849.413147 531.615906,856.880981 531.910461,867.081970 
	C532.199341,877.086426 526.166321,886.855591 516.423218,890.671204 
	C499.643555,897.242432 483.159851,895.439758 467.101013,887.804199 
	C464.023773,886.341064 463.564850,884.320312 465.162323,881.359253 
	C466.974152,878.000854 467.613556,873.210266 470.338196,871.351013 
	C473.574402,869.142517 477.062805,873.562378 480.613586,874.648865 
	C487.998352,876.908630 495.342773,878.860779 503.115479,876.715698 
	C507.100739,875.615845 510.165375,873.582886 510.635071,869.123352 
	C511.121704,864.502930 507.865234,862.592285 504.289612,861.329712 
	C498.804413,859.393066 493.214386,857.753357 487.288055,855.857178 
z"/>
<path fill="#000000" opacity="1.000000" stroke="none" 
	d="
M815.837036,301.378326 
	C819.000549,309.057709 820.732544,316.590088 819.861328,324.593262 
	C819.523254,327.699280 818.171265,329.155548 814.957092,328.359131 
	C814.797791,328.319641 814.623474,328.345093 814.460327,328.316376 
	C810.534973,327.625153 806.173828,327.771973 802.797363,326.020752 
	C798.703430,323.897430 801.887085,319.148834 801.124268,315.573547 
	C798.328491,302.469299 788.204773,292.598328 775.694641,291.956818 
	C763.158569,291.314026 750.755920,300.339752 747.177368,312.709625 
	C742.984497,327.202972 753.784607,343.820770 769.571838,346.432831 
	C773.617188,347.102142 774.673950,348.663910 774.200195,352.224640 
	C773.915161,354.366882 773.628296,356.509979 773.407043,358.659363 
	C772.653076,365.983826 772.316467,366.008514 764.785950,364.567169 
	C736.340576,359.122894 710.889648,317.176575 738.105713,286.565948 
	C757.582153,264.660370 790.984192,266.764496 809.614380,291.306641 
	C811.913818,294.335754 813.665344,297.780731 815.837036,301.378326 
z"/>
<path fill="#000000" opacity="1.000000" stroke="none" 
	d="
M800.256958,358.272766 
	C806.075378,352.114014 811.649170,346.209106 818.086121,339.389893 
	C820.969971,345.895081 823.613831,351.537476 825.950928,357.304199 
	C826.774597,359.336548 824.771484,360.582672 823.544861,361.880341 
	C815.076477,370.839020 806.575500,379.766846 798.120422,388.738007 
	C797.137695,389.780762 795.711487,390.543396 795.488403,392.282745 
	C797.131531,393.532440 799.016174,392.921295 800.748474,392.887787 
	C812.736328,392.656067 824.724182,392.384430 836.707703,391.992584 
	C840.144104,391.880188 842.339539,392.982117 843.573303,396.378265 
	C845.143860,400.701813 847.810608,404.619965 848.717651,409.943298 
	C841.840576,410.281403 835.280396,410.805878 828.714600,410.889038 
	C808.557617,411.144409 788.390625,410.933472 768.242371,411.465881 
	C748.041748,411.999603 738.568970,395.802429 738.161438,381.085968 
	C737.994568,375.058594 739.160400,374.076721 745.072571,374.559387 
	C745.570679,374.600037 746.069214,374.635773 746.568115,374.665588 
	C754.524902,375.141479 754.531250,375.140594 755.233521,382.920624 
	C755.638794,387.410522 757.419434,390.979950 761.965698,392.479553 
	C766.328491,393.918671 769.438782,392.198883 772.423706,388.816071 
	C781.458496,378.577179 790.794006,368.603638 800.256958,358.272766 
z"/>
<path fill="#000000" opacity="1.000000" stroke="none" 
	d="
M655.671875,784.311279 
	C669.794373,796.681213 683.657898,808.810791 698.412903,821.720276 
	C692.006592,824.780457 686.570984,827.521301 681.004700,829.964539 
	C678.785706,830.938538 677.331665,828.914001 675.877747,827.618286 
	C666.803406,819.531738 657.762939,811.407166 648.704834,803.302368 
	C647.363037,802.101807 645.987305,800.939270 643.796326,799.038269 
	C644.446594,811.863281 645.046143,823.708069 645.652832,835.552551 
	C645.669739,835.882629 645.774658,836.207275 645.818787,836.537109 
	C647.149963,846.476074 647.174377,846.529663 638.029663,850.773010 
	C635.220154,852.076599 632.635681,854.068848 629.452515,854.211548 
	C627.901672,853.028320 628.099548,851.440430 628.041809,849.984192 
	C627.223938,829.366211 626.444458,808.746704 625.625183,788.128845 
	C625.328918,780.674500 623.982666,773.274414 625.576538,765.759521 
	C628.419922,752.353638 642.460449,741.737671 656.115601,742.871582 
	C659.792908,743.176941 661.624573,744.748413 661.261475,748.573425 
	C661.120300,750.060364 661.090698,751.578064 661.210083,753.065735 
	C661.597412,757.892334 660.256104,760.323547 654.593933,760.107239 
	C647.567017,759.838806 643.697632,763.624695 643.240723,769.409241 
	C643.025635,772.131165 643.727051,774.165894 645.961121,775.914429 
	C649.234619,778.476196 652.273865,781.337341 655.671875,784.311279 
z"/>
<path fill="#000000" opacity="1.000000" stroke="none" 
	d="
M452.711121,197.128021 
	C454.133545,181.106583 462.280487,170.732391 476.998108,165.672028 
	C491.164734,160.801163 506.761780,164.710983 515.884766,175.215271 
	C521.358582,181.517929 523.666992,189.033279 524.160889,197.240723 
	C524.372803,200.762619 523.078064,202.223251 519.338501,202.432404 
	C505.214417,203.222366 491.108490,204.337296 476.996948,205.347198 
	C476.357269,205.392975 475.729156,205.600357 474.757446,205.802979 
	C474.779083,209.537430 477.037140,211.675415 479.763641,213.284103 
	C488.386597,218.371872 497.103668,217.927841 505.131653,212.313507 
	C508.846008,209.715866 511.252106,209.803497 513.904358,213.131088 
	C514.110229,213.389328 514.381775,213.595062 514.622375,213.825607 
	C521.706726,220.612534 521.590027,221.838470 513.346130,227.238205 
	C492.317047,241.012207 461.603241,231.702011 454.436646,209.378098 
	C453.206177,205.545197 452.500702,201.631546 452.711121,197.128021 
M502.346191,190.640411 
	C504.419037,188.519455 502.436066,186.887085 501.460144,185.437057 
	C495.367859,176.385208 479.357971,177.615936 474.495911,187.429916 
	C472.458923,191.541550 473.218018,193.028275 477.767944,192.770813 
	C485.739838,192.319702 493.691742,191.514648 502.346191,190.640411 
z"/>
<path fill="#000000" opacity="1.000000" stroke="none" 
	d="
M841.007202,576.319092 
	C835.585815,577.743347 830.560669,578.464600 825.312622,577.573120 
	C822.377930,577.074707 821.378357,575.839661 821.604492,572.934998 
	C822.546631,560.833496 823.306580,548.717896 824.253296,536.616760 
	C824.484924,533.655334 825.081604,530.732544 824.043091,527.621460 
	C819.647705,527.295288 817.101746,529.986023 815.172424,533.058167 
	C810.178711,541.010010 809.636475,549.436890 814.212158,557.681763 
	C816.018799,560.937134 815.754333,562.783936 812.667664,564.519714 
	C811.954224,564.920959 811.387268,565.578918 810.741455,566.104736 
	C803.321899,572.146301 802.711914,572.022156 798.295410,563.585693 
	C788.581909,545.030823 797.243225,517.049500 815.683411,509.307343 
	C839.916931,499.132812 864.236633,516.461121 864.380859,540.382935 
	C864.490967,558.635864 856.883972,570.642639 841.007202,576.319092 
M835.302002,552.446106 
	C835.531128,554.325134 834.540833,556.405640 836.112671,558.061462 
	C844.288025,556.809082 849.112488,550.574768 848.804321,541.791199 
	C848.542786,534.337585 844.159912,529.018677 837.553345,528.355774 
	C835.999023,536.006714 836.361572,543.857910 835.302002,552.446106 
z"/>
<path fill="#000000" opacity="1.000000" stroke="none" 
	d="
M528.705139,205.742676 
	C528.452087,190.444244 533.696777,178.304794 547.413330,171.568283 
	C561.520447,164.639969 575.338196,166.823700 587.936707,175.841141 
	C598.000488,183.044357 602.729553,199.070297 598.970581,210.941513 
	C598.041016,213.877045 596.332886,214.236145 593.652832,213.763641 
	C580.060181,211.367142 566.447144,209.085510 552.838074,206.782730 
	C551.723755,206.594177 550.585266,206.548615 548.968933,206.387985 
	C549.226196,212.724869 552.820557,216.446289 557.655151,218.868729 
	C564.309326,222.202896 571.381226,223.163162 578.300354,219.610947 
	C581.348267,218.046173 583.252075,218.446381 584.762634,221.417709 
	C585.061707,222.005936 585.516602,222.513718 585.887146,223.066940 
	C591.627502,231.637299 591.137878,233.068146 581.352783,236.330627 
	C557.948853,244.133835 532.561279,229.599121 528.705139,205.742676 
M554.801147,187.186874 
	C553.083923,188.906845 551.296204,190.589432 551.236084,193.713745 
	C561.300476,195.274994 570.994873,197.679565 581.108337,198.568710 
	C579.739380,185.189178 566.899292,179.634308 554.801147,187.186874 
z"/>
<path fill="#000000" opacity="1.000000" stroke="none" 
	d="
M204.509125,492.589966 
	C205.509232,491.674438 206.250839,491.004211 206.975449,490.316071 
	C213.400101,484.215179 214.431900,484.211700 218.883179,491.883911 
	C230.190018,511.372345 223.599487,544.970886 196.911072,550.606750 
	C173.989288,555.447205 153.010681,538.868225 154.279221,513.892822 
	C155.290710,493.978271 166.411896,482.775238 185.901764,480.253723 
	C194.072266,479.196625 195.328018,480.270935 195.322617,488.236572 
	C195.313278,502.033875 195.320023,515.831177 195.320023,529.930420 
	C200.044067,529.694397 202.656754,526.939514 204.496445,523.606628 
	C209.066437,515.327087 208.826080,506.970856 203.685135,499.019958 
	C202.066162,496.516052 201.380920,494.661560 204.509125,492.589966 
M170.678665,510.475006 
	C169.156174,521.941650 173.249298,529.135803 182.295807,530.107422 
	C182.295807,520.127991 182.295807,510.198730 182.295807,500.001404 
	C176.187897,501.062286 172.744492,504.431458 170.678665,510.475006 
z"/>
<path fill="#000000" opacity="1.000000" stroke="none" 
	d="
M183.144287,658.706543 
	C179.753464,651.007019 176.988205,643.592285 178.325302,635.267944 
	C179.946884,625.172607 186.350250,618.928040 195.087555,615.021179 
	C206.177597,610.062256 217.579361,605.804871 228.769119,601.061890 
	C232.054520,599.669373 233.695984,600.633667 234.793732,603.741150 
	C235.735214,606.406311 236.719238,609.081360 237.984879,611.601196 
	C239.820465,615.255615 240.338516,618.301208 235.061066,619.580139 
	C246.829575,626.474915 251.449158,636.854309 251.140793,649.445740 
	C250.934311,657.876709 246.236221,663.788086 238.332855,666.861511 
	C230.639801,669.853149 223.983536,667.932800 218.263672,662.189514 
	C211.815933,655.715393 209.168686,647.192139 205.738708,639.082642 
	C205.001129,637.338745 205.008377,634.623718 202.500443,634.582947 
	C200.190140,634.545532 198.738403,636.632202 197.633011,638.481140 
	C195.514389,642.024963 195.910629,645.797607 197.033081,649.590515 
	C199.253403,657.093384 204.412094,662.455933 210.354019,667.325867 
	C208.179169,671.532715 205.038422,674.521851 202.247009,677.764160 
	C200.337128,679.982605 198.671570,678.461853 197.108704,677.192078 
	C191.042862,672.263489 186.721527,665.999146 183.144287,658.706543 
M229.223724,648.699219 
	C232.702515,647.811890 234.720047,645.722961 234.730453,641.990784 
	C234.747177,635.983093 232.182663,631.359192 227.027390,628.340759 
	C223.798431,626.450195 220.362442,626.469360 217.000519,628.237183 
	C215.500244,629.026001 215.413528,630.229797 216.006561,631.626404 
	C217.698242,635.610291 219.232574,639.672119 221.142487,643.548706 
	C222.584885,646.476379 224.803955,648.747742 229.223724,648.699219 
z"/>
<path fill="#000000" opacity="1.000000" stroke="none" 
	d="
M417.135803,791.791626 
	C431.994141,792.185852 444.425262,796.762207 452.808197,809.167725 
	C460.641602,820.760010 460.061798,835.753052 451.676453,848.158020 
	C444.692169,858.490295 430.139252,864.220093 417.391632,861.806335 
	C401.263702,858.752441 389.039612,850.878235 384.881165,834.136536 
	C379.683502,813.210999 394.206818,794.199890 417.135803,791.791626 
M431.435638,840.986511 
	C432.648834,839.410400 434.061005,837.948486 435.041931,836.239136 
	C440.251923,827.160706 438.255615,816.617981 430.536804,811.882385 
	C423.260132,807.418091 414.375671,808.573608 409.242584,814.651978 
	C403.083557,821.945251 402.664764,833.074402 408.308899,839.465149 
	C413.936829,845.837463 423.097717,846.655396 431.435638,840.986511 
z"/>
<path fill="#000000" opacity="1.000000" stroke="none" 
	d="
M254.245972,296.411316 
	C258.650482,297.813507 262.188568,300.031281 265.591888,302.415527 
	C274.450256,308.621399 283.168701,315.028076 292.064301,321.179138 
	C294.945557,323.171387 296.018280,324.891235 293.340546,327.882629 
	C291.465851,329.976898 290.012848,332.449707 288.381104,334.760254 
	C284.120605,340.793213 284.139404,340.771240 277.937836,336.362335 
	C270.071533,330.770050 262.255219,325.102020 254.268158,319.686676 
	C246.514359,314.429443 240.373978,315.153992 235.366653,321.534515 
	C230.437531,327.815399 230.970444,336.180481 237.210754,341.691803 
	C244.953522,348.530090 253.780609,353.965271 262.190033,359.934967 
	C267.844421,363.948944 267.885437,363.887604 263.969971,369.306946 
	C262.215668,371.734985 260.289276,374.061676 258.763611,376.626312 
	C256.686523,380.117859 254.654922,379.915680 251.570496,377.680176 
	C236.076096,366.450287 220.494553,355.338074 204.813568,344.370453 
	C201.657364,342.162933 200.827789,340.351379 203.513855,337.264587 
	C205.250320,335.269073 206.636337,332.953461 208.063965,330.707886 
	C210.193436,327.358307 212.243896,324.019287 217.246063,329.551605 
	C217.328873,315.290649 222.454636,304.837372 233.683289,298.050385 
	C239.993576,294.236206 246.865128,293.760132 254.245972,296.411316 
z"/>
<path fill="#000000" opacity="1.000000" stroke="none" 
	d="
M748.671631,781.451294 
	C745.879272,783.371704 744.854553,781.284180 743.606140,779.773499 
	C736.712708,771.432129 729.892273,763.028931 722.895691,754.774963 
	C719.387817,750.636841 714.966492,747.742798 709.304016,749.450012 
	C703.661682,751.151245 700.041748,755.226562 698.776184,761.075317 
	C697.690552,766.092834 699.982300,770.224976 702.907959,773.921326 
	C708.796082,781.360535 714.716736,788.790100 720.984131,795.906433 
	C724.174133,799.528687 724.966797,802.090881 720.278015,804.902161 
	C718.021912,806.254822 715.954590,808.064270 714.145020,809.989502 
	C710.669067,813.687622 708.368713,813.273804 705.140625,809.213318 
	C693.643066,794.750854 681.843323,780.521912 669.878784,766.441772 
	C666.707214,762.709473 666.874817,760.313782 670.790588,757.704529 
	C672.583313,756.509949 674.203247,755.045227 675.844177,753.636108 
	C678.710510,751.174744 681.484558,748.110718 685.245300,754.419189 
	C687.480042,744.219055 692.471191,737.499329 700.189758,732.752747 
	C711.856201,725.578247 723.665588,726.480591 733.446289,736.143982 
	C743.287598,745.867126 751.149536,757.335327 760.201965,767.766541 
	C761.674438,769.463257 761.643433,770.887024 759.741760,772.378479 
	C756.076477,775.253235 752.540588,778.292786 748.671631,781.451294 
z"/>
<path fill="#000000" opacity="1.000000" stroke="none" 
	d="
M441.738007,198.432709 
	C445.318359,209.398209 448.633545,220.044662 452.220123,230.598877 
	C453.412720,234.108353 452.560394,235.866577 449.030243,236.761414 
	C446.295319,237.454681 443.650482,238.501709 440.962494,239.382050 
	C434.356445,241.545486 434.315002,241.556625 432.087219,234.759140 
	C428.925415,225.111832 426.065308,215.358139 422.630402,205.810318 
	C420.055969,198.654251 415.082184,195.569962 409.083160,196.437668 
	C401.753723,197.497803 396.273773,202.840958 395.552368,209.764923 
	C395.217865,212.975327 396.122681,216.051437 397.079224,219.061615 
	C399.950226,228.096420 402.779602,237.148178 405.891846,246.100662 
	C407.044891,249.417435 406.345978,250.954926 402.941986,251.820099 
	C399.241425,252.760696 395.609955,254.034851 392.037140,255.396561 
	C389.242340,256.461700 387.739075,255.769180 386.810822,252.900360 
	C380.714386,234.058777 374.585388,215.227295 368.334351,196.436646 
	C367.261566,193.211761 368.434631,191.781799 371.317780,190.923050 
	C374.029602,190.115326 376.818298,189.436157 379.375153,188.267288 
	C383.453888,186.402725 386.417633,186.618439 387.587952,192.346481 
	C392.883331,185.365585 398.931061,180.528107 406.934601,178.258194 
	C421.341278,174.172272 433.616241,179.732834 439.715607,193.445587 
	C440.391510,194.965210 440.960266,196.532486 441.738007,198.432709 
z"/>
<path fill="#000000" opacity="1.000000" stroke="none" 
	d="
M316.961731,835.909058 
	C317.847931,835.123108 318.548553,834.632996 319.067474,833.995117 
	C321.499023,831.006409 323.457428,830.641479 326.669128,833.653015 
	C332.646027,839.257324 338.053101,837.645813 341.286041,829.773682 
	C338.169434,827.061890 334.286926,825.519043 330.646240,823.632751 
	C327.763611,822.139343 327.339722,820.459106 328.877380,817.664368 
	C335.408722,805.793457 332.769196,806.900574 343.757904,812.481262 
	C347.784821,814.526489 349.654053,813.983154 351.679016,809.866638 
	C357.404541,798.227295 363.774597,786.904785 369.493164,775.262207 
	C371.501373,771.173645 373.507782,770.700867 377.126953,772.942688 
	C379.944733,774.688232 382.978424,776.120544 386.016876,777.464478 
	C389.170441,778.859314 389.667542,780.643066 388.046997,783.718567 
	C381.844238,795.490540 375.829315,807.361572 369.754944,819.201050 
	C368.930695,820.807556 367.818726,822.311035 367.774841,824.196045 
	C367.990906,824.512268 368.137421,824.825012 368.368988,825.050110 
	C370.448242,827.071838 375.342865,827.032715 374.971252,830.195801 
	C374.533020,833.926208 371.882812,837.424438 370.056641,840.953491 
	C369.030701,842.935974 367.290314,842.674988 365.810089,841.590088 
	C361.253357,838.250305 358.971649,840.189270 356.178711,844.441040 
	C346.669006,858.918030 322.985840,858.066711 313.560974,843.262756 
	C310.936157,839.139709 315.130859,838.278076 316.961731,835.909058 
z"/>
<path fill="#000000" opacity="1.000000" stroke="none" 
	d="
M309.956177,784.901306 
	C313.989014,779.379150 317.877289,774.181580 321.630646,768.888245 
	C327.211456,761.017639 325.639893,756.492981 316.333862,753.287476 
	C315.871368,753.128235 315.425507,752.920715 314.710266,752.628906 
	C314.262939,748.241455 316.246429,744.307251 317.413208,740.243042 
	C318.079254,737.923096 320.083496,738.025940 321.955963,738.547363 
	C331.909943,741.319092 339.747375,746.757690 343.866028,756.566040 
	C346.846039,763.662842 345.201416,770.396240 341.172882,776.484985 
	C336.862213,783.000244 332.066895,789.194336 327.502502,795.542480 
	C326.447815,797.009399 325.472015,798.532959 324.561096,799.880798 
	C325.835205,803.516052 331.594971,803.725098 330.937531,807.177063 
	C330.313538,810.453552 327.308136,813.365662 325.081390,816.229187 
	C320.332153,822.336304 318.535492,813.239807 313.295319,815.038330 
	C311.671753,816.441040 309.620026,819.671631 307.588165,822.833862 
	C305.631836,825.878357 303.670868,826.037537 301.158447,823.742188 
	C301.036163,823.630493 300.893127,823.541565 300.760590,823.440918 
	C297.059021,820.628845 291.593170,818.520020 290.118317,814.820190 
	C288.408905,810.532043 294.575714,807.422424 296.531555,803.335449 
	C296.812286,802.748779 297.026367,802.130127 297.487793,800.992615 
	C294.321381,798.674622 291.220825,796.216064 287.926971,794.051758 
	C285.171265,792.241211 285.139130,790.662292 287.048248,788.008484 
	C293.760406,778.678101 293.684814,778.571167 303.218018,785.421204 
	C305.571411,787.112183 307.691284,788.666809 309.956177,784.901306 
z"/>
<path fill="#000000" opacity="1.000000" stroke="none" 
	d="
M163.682037,596.133362 
	C163.310013,594.082397 163.200180,592.370422 162.614594,590.840454 
	C160.827011,586.170105 162.670853,583.951294 168.081573,583.500183 
	C163.133835,578.763184 159.397110,573.931641 157.448700,567.825500 
	C156.154434,563.769470 157.058807,561.749451 161.390839,561.488159 
	C162.044189,561.448669 162.677277,561.146057 163.330872,561.025574 
	C166.597214,560.423889 170.094528,558.832825 173.079620,559.504578 
	C176.975388,560.381348 175.374664,565.147583 176.652634,568.052185 
	C179.820694,575.252502 186.113068,578.883789 194.526367,577.409180 
	C204.032166,575.743164 213.527252,573.993530 222.975128,572.030701 
	C226.521851,571.293762 228.330429,572.259949 228.923019,575.829956 
	C229.522049,579.438660 230.231140,583.033020 231.022690,586.604675 
	C231.739716,589.840088 230.726761,591.567139 227.313782,592.203125 
	C208.344635,595.738281 189.371597,599.263428 170.459091,603.085083 
	C164.415146,604.306396 164.505600,600.226379 163.682037,596.133362 
z"/>
<path fill="#000000" opacity="1.000000" stroke="none" 
	d="
M605.130615,223.225388 
	C610.039001,210.614639 614.893738,198.395401 619.483826,186.077515 
	C620.757996,182.658112 622.317505,181.558609 625.737610,183.236130 
	C628.267700,184.477127 630.941650,185.495010 633.645142,186.296097 
	C637.878723,187.550552 640.243164,189.525543 636.531860,195.291595 
	C643.540100,192.807404 649.466919,192.314651 655.483032,193.960098 
	C660.755615,195.402191 661.154907,195.965561 659.246277,201.163651 
	C659.017090,201.787735 658.761719,202.403381 658.492493,203.011444 
	C657.151306,206.041245 656.509033,209.842133 654.267151,211.889343 
	C651.725952,214.209915 648.515503,210.837189 645.494629,210.391342 
	C637.754944,209.249130 631.788757,212.314560 628.383118,220.224380 
	C624.634399,228.931290 621.134705,237.760559 617.940674,246.684769 
	C616.357300,251.108826 614.148315,251.937469 610.113770,249.992081 
	C607.123840,248.550385 603.986755,247.362595 600.824524,246.343140 
	C597.411865,245.242981 597.003906,243.353256 598.322632,240.269852 
	C600.677124,234.764786 602.772888,229.149063 605.130615,223.225388 
z"/>
<path fill="#000000" opacity="1.000000" stroke="none" 
	d="
M792.199707,579.192017 
	C812.592896,584.635742 832.597656,590.216431 852.625793,595.711975 
	C855.623535,596.534485 856.170105,598.213806 855.319275,600.929504 
	C854.475159,603.624023 853.705994,606.352844 853.107605,609.110901 
	C852.200195,613.293274 850.811646,616.620056 844.376709,613.875122 
	C847.167725,620.074463 847.669434,625.585022 847.311707,631.204834 
	C846.934753,637.125977 845.843140,637.977783 840.284241,636.401184 
	C836.769104,635.404175 832.673889,635.156372 829.912598,633.117981 
	C826.274597,630.432373 830.243713,626.489197 830.117920,622.996948 
	C829.830444,615.015747 826.591919,610.105652 817.997681,607.396545 
	C809.920898,604.850464 801.725098,602.680176 793.572754,600.375916 
	C785.614807,598.126587 785.485840,598.105591 787.868164,590.433411 
	C789.032959,586.682312 789.212036,582.548218 792.199707,579.192017 
z"/>
<path fill="#000000" opacity="1.000000" stroke="none" 
	d="
M349.967285,248.969803 
	C344.012177,238.155106 338.322510,227.611801 332.411041,217.194336 
	C330.622589,214.042648 330.831879,212.180298 334.313507,210.594208 
	C337.937592,208.943237 341.378357,206.874664 344.836090,204.879150 
	C347.020325,203.618607 348.431335,203.995651 349.666504,206.256348 
	C359.397980,224.067337 369.170349,241.856155 378.998505,259.613953 
	C380.296326,261.958832 379.644989,263.332367 377.437195,264.359894 
	C377.286530,264.430023 377.138428,264.507629 376.995728,264.592804 
	C362.917908,272.993652 362.921600,272.991791 355.154816,258.496857 
	C353.504822,255.417526 351.817627,252.358109 349.967285,248.969803 
z"/>
<path fill="#000000" opacity="1.000000" stroke="none" 
	d="
M677.756958,261.597656 
	C685.120850,261.138184 689.989929,263.886383 692.126038,269.434875 
	C694.066406,274.474884 692.461487,280.075226 688.043335,283.681580 
	C684.004089,286.978668 678.140686,287.352875 673.634521,284.392059 
	C669.413452,281.618500 667.180725,277.593048 667.890991,272.537231 
	C668.667297,267.011993 671.687927,263.080536 677.756958,261.597656 
z"/>
<path fill="#000000" opacity="1.000000" stroke="none" 
	d="
M575.223694,815.503296 
	C572.112183,822.735535 566.351074,826.085449 560.223999,824.609619 
	C553.853516,823.075134 550.240967,818.022400 550.697205,811.284973 
	C551.129822,804.895874 556.532715,799.798462 562.926453,799.747009 
	C569.080444,799.697510 574.564941,804.478333 575.260315,810.600769 
	C575.428040,812.077332 575.282898,813.589417 575.223694,815.503296 
z"/>
<path fill="#000000" opacity="1.000000" stroke="none" 
	d="
M319.290466,185.462250 
	C323.010162,180.980148 327.347107,178.355148 332.927155,179.297119 
	C339.075989,180.335114 342.852966,186.327057 341.549011,192.278427 
	C340.053223,199.105301 332.362366,203.817291 325.454712,202.138992 
	C319.662933,200.731812 316.197449,194.544861 317.866791,188.492447 
	C318.127777,187.546158 318.670044,186.677444 319.290466,185.462250 
z"/>
</svg>